name analog
datacolumns 19
datarows 32
range 0.0 0.0155
endheader
time	ground_force_vx	ground_force_vy	ground_force_vz	ground_force_px	ground_force_py	ground_force_pz	l_ground_force_vx	l_ground_force_vy	l_ground_force_vz	l_ground_force_px	l_ground_force_py	l_ground_force_pz	ground_torque_x	ground_torque_y	ground_torque_z	l_ground_torque_x	l_ground_torque_y	l_ground_torque_z
0.0	-0.0	-0.0	-0.0	0.2242883890867233	14.329183578491213	-353.0050354003906	-1.9727463722229004	-15.876887321472168	-375.9532165527344	-0.0	-0.0	-0.0	-0.0	-0.0	-0.0	112333.8984375	7708.53662109375	-3520.38623046875
0.0005	-0.0	-0.0	-0.0	0.0449482724070549	14.55070972442627	-352.8267822265625	-2.327705383300781	-16.096942901611328	-376.9952087402344	-0.0	-0.0	-0.0	-0.0	-0.0	-0.0	112562.640625	7688.36572265625	-3521.14501953125
0.001	-0.0	-0.0	-0.0	0.2008563131093979	14.795646667480469	-353.5331420898437	-1.9954347610473635	-15.788334846496582	-375.7711486816406	-0.0	-0.0	-0.0	-0.0	-0.0	-0.0	112642.4140625	7808.173828125	-3550.095458984375
0.0015	-0.0	-0.0	-0.0	0.401661217212677	14.662164688110352	-351.854248046875	-1.8639400005340576	-16.252199172973633	-376.4777221679688	-0.0	-0.0	-0.0	-0.0	-0.0	-0.0	112702.03125	7801.68017578125	-3454.32177734375
0.002	-0.0	-0.0	-0.0	0.312373012304306	14.439125061035156	-351.67974853515625	-2.3280138969421387	-16.318073272705078	-377.4295043945313	-0.0	-0.0	-0.0	-0.0	-0.0	-0.0	112788.4453125	7733.4111328125	-3564.91064453125
0.0025	-0.0	-0.0	-0.0	0.3790568709373474	14.506060600280762	-351.7672119140625	-1.7749202251434326	-15.743515968322754	-376.913330078125	-0.0	-0.0	-0.0	-0.0	-0.0	-0.0	112937.8828125	7516.4658203125	-3475.953857421875
0.003	-0.0	-0.0	-0.0	0.4683441817760467	14.907033920288086	-353.1799011230469	-2.018622398376465	-16.11960792541504	-378.3045959472656	-0.0	-0.0	-0.0	-0.0	-0.0	-0.0	112679.53125	7663.20166015625	-3557.748291015625
0.0035	-0.0	-0.0	-0.0	0.5799386501312256	14.394489288330078	-352.38543701171875	-2.283294439315796	-16.0084171295166	-377.9539794921875	-0.0	-0.0	-0.0	-0.0	-0.0	-0.0	112673.2265625	7604.921875	-3461.4755859375
0.004	-0.0	-0.0	-0.0	0.4018914401531219	14.572968482971191	-352.56158447265625	-2.2180633544921875	-15.94191837310791	-377.6933288574219	-0.0	-0.0	-0.0	-0.0	-0.0	-0.0	112570.53125	7826.53466796875	-3476.41748046875
0.0045000000000000005	-0.0	-0.0	-0.0	0.9151743054389954	14.237815856933594	-352.3857116699219	-2.2176170349121094	-16.16286849975586	-377.2592468261719	-0.0	-0.0	-0.0	-0.0	-0.0	-0.0	112879.4921875	7550.15673828125	-3446.66015625
0.005	-0.0	-0.0	-0.0	0.7142369151115417	14.39483642578125	-351.6750793457031	-2.173395156860352	-15.787529945373535	-377.3455810546875	-0.0	-0.0	-0.0	-0.0	-0.0	-0.0	112413.296875	7421.736328125	-3587.4853515625
0.0055	-0.0	-0.0	-0.0	0.8913968801498413	14.63949203491211	-352.5611877441406	-1.7742156982421875	-16.008392333984375	-378.7427978515625	-0.0	-0.0	-0.0	-0.0	-0.0	-0.0	112343.84375	7691.275390625	-3505.645751953125
0.006	-0.0	-0.0	-0.0	0.7128204703330994	14.795646667480469	-352.65191650390625	-2.284911632537842	-16.008506774902344	-376.9096984863281	-0.0	-0.0	-0.0	-0.0	-0.0	-0.0	112491.484375	7429.75537109375	-3528.318603515625
0.006500000000000001	-0.0	-0.0	-0.0	0.623508095741272	14.084532737731934	-352.2115478515625	-2.218141555786133	-16.229572296142578	-376.8229675292969	-0.0	-0.0	-0.0	-0.0	-0.0	-0.0	112370.9140625	7433.5859375	-3506.056640625
0.007	-0.0	-0.0	-0.0	0.9383916258811952	14.617385864257812	-351.946044921875	-2.1511049270629883	-15.742685317993164	-376.1230773925781	-0.0	-0.0	-0.0	-0.0	-0.0	-0.0	112294.875	7451.546875	-3520.629150390625
0.0075	-0.0	-0.0	-0.0	0.6024900078773499	14.395197868347168	-352.56060791015625	-2.0857248306274414	-15.897903442382812	-376.0363159179688	-0.0	-0.0	-0.0	-0.0	-0.0	-0.0	112418.1796875	7484.84521484375	-3535.99755859375
0.008	-0.0	-0.0	-0.0	0.8248569369316101	14.304749488830566	-353.0168151855469	-2.085094928741455	-15.831467628479004	-376.2989196777344	-0.0	-0.0	-0.0	-0.0	-0.0	-0.0	112498.203125	7426.84130859375	-3453.88330078125
0.0085	-0.0	-0.0	-0.0	1.250463604927063	14.482933044433594	-352.6531982421875	-1.7742156982421875	-15.743106842041016	-376.734619140625	-0.0	-0.0	-0.0	-0.0	-0.0	-0.0	112443.375	7225.32958984375	-3386.647705078125
0.009000000000000001	-0.0	-0.0	-0.0	1.0032002925872805	14.326458930969238	-352.4735717773437	-1.7512191534042358	-15.96441650390625	-377.6139526367188	-0.0	-0.0	-0.0	-0.0	-0.0	-0.0	112274.5	7241.16259765625	-3490.642578125
0.0095	-0.0	-0.0	-0.0	1.1378772258758545	14.439125061035156	-352.740234375	-2.107174873352051	-15.72008991241455	-377.083740234375	-0.0	-0.0	-0.0	-0.0	-0.0	-0.0	112443.2265625	7367.904296875	-3349.8173828125
0.01	-0.0	-0.0	-0.0	0.957566738128662	14.10247802734375	-353.3603820800781	-1.886101245880127	-15.984901428222656	-377.5188903808594	-0.0	-0.0	-0.0	-0.0	-0.0	-0.0	112473.5625	7263.12451171875	-3312.7197265625
0.0105	-0.0	-0.0	-0.0	1.4512336254119873	14.193495750427246	-353.0074768066406	-1.7276344299316406	-15.874714851379396	-376.5570983886719	-0.0	-0.0	-0.0	-0.0	-0.0	-0.0	112616.1328125	6892.06396484375	-3327.63330078125
0.011	-0.0	-0.0	-0.0	0.5308923721313477	13.967369079589844	-353.2574462890625	-1.795997142791748	-15.874639511108398	-376.0425109863281	-0.0	-0.0	-0.0	-0.0	-0.0	-0.0	112648.2265625	7223.84326171875	-3423.95751953125
0.0115	-0.0	-0.0	-0.0	1.0247504711151123	14.730552673339844	-353.8955993652344	-1.9516372680664065	-16.4945068359375	-377.6109008789063	-0.0	-0.0	-0.0	-0.0	-0.0	-0.0	112734.7421875	7071.89013671875	-3454.45849609375
0.012	-0.0	-0.0	-0.0	1.4298642873764038	14.42245388031006	-352.9027099609375	-1.928039073944092	-16.206087112426758	-377.7041015625	-0.0	-0.0	-0.0	-0.0	-0.0	-0.0	112915.640625	7042.396484375	-3424.7431640625
0.0125	-0.0	-0.0	-0.0	1.7435624599456787	14.528255462646484	-353.0733642578125	-1.752546787261963	-16.3867130279541	-379.1014099121094	-0.0	-0.0	-0.0	-0.0	-0.0	-0.0	112728.6015625	6835.287109375	-3446.437255859375
0.013000000000000001	-0.0	-0.0	-0.0	1.0489115715026855	14.709266662597656	-353.5331420898437	-1.7720668315887451	-16.384742736816406	-378.6591796875	-0.0	-0.0	-0.0	-0.0	-0.0	-0.0	112792.609375	6993.04931640625	-3408.113037109375
0.0135	-0.0	-0.0	-0.0	1.784210205078125	14.39601230621338	-352.9122009277344	-1.551287055015564	-16.470848083496094	-377.2628784179688	-0.0	-0.0	-0.0	-0.0	-0.0	-0.0	112764.140625	7020.5537109375	-3506.413818359375
0.014	-0.0	-0.0	-0.0	1.2243471145629885	14.503677368164062	-352.2056884765625	-2.0619113445281982	-16.427833557128906	-378.470703125	-0.0	-0.0	-0.0	-0.0	-0.0	-0.0	112678.6953125	6846.43896484375	-3417.82568359375
0.0145	-0.0	-0.0	-0.0	1.5596014261245728	14.531417846679688	-352.6564636230469	-2.1987907886505127	-16.577938079833984	-376.9989929199219	-0.0	-0.0	-0.0	-0.0	-0.0	-0.0	112755.7109375	6748.72119140625	-3380.273193359375
0.015	-0.0	-0.0	-0.0	1.1134711503982544	14.62070369720459	-352.3885803222656	-1.8387136459350584	-16.074546813964844	-377.3482971191406	-0.0	-0.0	-0.0	-0.0	-0.0	-0.0	112478.140625	7050.66943359375	-3356.519775390625
0.0155	-0.0	-0.0	-0.0	1.7378671169281006	14.685101509094238	-352.10662841796875	-2.0804011821746826	-16.09591293334961	-378.2269592285156	-0.0	-0.0	-0.0	-0.0	-0.0	-0.0	112411.765625	6977.65283203125	-3521.236083984375
